<?xml version="1.0" encoding="UTF-8" standalone="no"?>
<!DOCTYPE svg PUBLIC "-//W3C//DTD SVG 1.1//EN" "http://www.w3.org/Graphics/SVG/1.1/DTD/svg11.dtd">
<svg xmlns:dc="http://purl.org/dc/elements/1.1/" xmlns:xl="http://www.w3.org/1999/xlink" version="1.1" xmlns="http://www.w3.org/2000/svg" viewBox="130 314 16 15" width="16" height="15">
  <defs/>
  <metadata> Produced by OmniGraffle 7.7.1 
    <dc:date>2018-06-04 06:53:54 +0000</dc:date>
  </metadata>
  <g id="Canvas_1" fill-opacity="1" stroke-dasharray="none" stroke="none" stroke-opacity="1" fill="none">
    <title>Canvas 1</title>
    <g id="Canvas_1: Layer 1">
      <title>Layer 1</title>
      <g id="Group_3">
        <g id="Group_4">
          <g id="Graphic_7">
            <path d="M 134 326 L 134 329 L 142 329 L 142 326 L 142 324 L 134 324 Z M 135 325 L 141 325 L 141 326 L 135 326 Z M 135 327 L 141 327 L 141 328 L 135 328 Z" fill="#030104"/>
          </g>
          <g id="Graphic_6">
            <path d="M 142 317 L 142 314 L 134 314 L 134 317 L 134 319 L 142 319 Z" fill="#030104"/>
          </g>
          <g id="Graphic_5">
            <path d="M 144 317 L 143 317 L 143 319 L 143 320 L 133 320 L 133 319 L 133 317 L 132 317 C 131 317 130 318 130 319 L 130 324 C 130 325 131 326 132 326 L 133 326 L 133 324 L 133 323 L 143 323 L 143 324 L 143 326 L 144 326 C 145 326 146 325 146 324 L 146 319 C 146 318 145 317 144 317 Z" fill="#030104"/>
          </g>
        </g>
      </g>
    </g>
  </g>
</svg>
